<?xml version="1.0" encoding="UTF-8"?>
<!DOCTYPE svg PUBLIC "-//W3C//DTD SVG 1.1//EN" "http://www.w3.org/Graphics/SVG/1.1/DTD/svg11.dtd">
<svg version="1.2" width="27.68mm" height="8.51mm" viewBox="0 0 2768 851" preserveAspectRatio="xMidYMid" fill-rule="evenodd" stroke-width="28.222" stroke-linejoin="round" xmlns="http://www.w3.org/2000/svg" xmlns:ooo="http://xml.openoffice.org/svg/export" xmlns:xlink="http://www.w3.org/1999/xlink" xmlns:presentation="http://sun.com/xmlns/staroffice/presentation" xmlns:smil="http://www.w3.org/2001/SMIL20/" xmlns:anim="urn:oasis:names:tc:opendocument:xmlns:animation:1.0" xml:space="preserve">
 <defs class="ClipPathGroup">
  <clipPath id="presentation_clip_path" clipPathUnits="userSpaceOnUse">
   <rect x="0" y="0" width="2768" height="851"/>
  </clipPath>
  <clipPath id="presentation_clip_path_shrink" clipPathUnits="userSpaceOnUse">
   <rect x="2" y="0" width="2763" height="850"/>
  </clipPath>
 </defs>
 <defs class="TextShapeIndex">
  <g ooo:slide="id1" ooo:id-list="id3 id4 id5 id6 id7 id8 id9 id10 id11 id12 id13 id14 id15 id16 id17 id18 id19"/>
 </defs>
 <defs class="EmbeddedBulletChars">
  <g id="bullet-char-template-57356" transform="scale(0.00048828125,-0.00048828125)">
   <path d="M 580,1141 L 1163,571 580,0 -4,571 580,1141 Z"/>
  </g>
  <g id="bullet-char-template-57354" transform="scale(0.00048828125,-0.00048828125)">
   <path d="M 8,1128 L 1137,1128 1137,0 8,0 8,1128 Z"/>
  </g>
  <g id="bullet-char-template-10146" transform="scale(0.00048828125,-0.00048828125)">
   <path d="M 174,0 L 602,739 174,1481 1456,739 174,0 Z M 1358,739 L 309,1346 659,739 1358,739 Z"/>
  </g>
  <g id="bullet-char-template-10132" transform="scale(0.00048828125,-0.00048828125)">
   <path d="M 2015,739 L 1276,0 717,0 1260,543 174,543 174,936 1260,936 717,1481 1274,1481 2015,739 Z"/>
  </g>
  <g id="bullet-char-template-10007" transform="scale(0.00048828125,-0.00048828125)">
   <path d="M 0,-2 C -7,14 -16,27 -25,37 L 356,567 C 262,823 215,952 215,954 215,979 228,992 255,992 264,992 276,990 289,987 310,991 331,999 354,1012 L 381,999 492,748 772,1049 836,1024 860,1049 C 881,1039 901,1025 922,1006 886,937 835,863 770,784 769,783 710,716 594,584 L 774,223 C 774,196 753,168 711,139 L 727,119 C 717,90 699,76 672,76 641,76 570,178 457,381 L 164,-76 C 142,-110 111,-127 72,-127 30,-127 9,-110 8,-76 1,-67 -2,-52 -2,-32 -2,-23 -1,-13 0,-2 Z"/>
  </g>
  <g id="bullet-char-template-10004" transform="scale(0.00048828125,-0.00048828125)">
   <path d="M 285,-33 C 182,-33 111,30 74,156 52,228 41,333 41,471 41,549 55,616 82,672 116,743 169,778 240,778 293,778 328,747 346,684 L 369,508 C 377,444 397,411 428,410 L 1163,1116 C 1174,1127 1196,1133 1229,1133 1271,1133 1292,1118 1292,1087 L 1292,965 C 1292,929 1282,901 1262,881 L 442,47 C 390,-6 338,-33 285,-33 Z"/>
  </g>
  <g id="bullet-char-template-9679" transform="scale(0.00048828125,-0.00048828125)">
   <path d="M 813,0 C 632,0 489,54 383,161 276,268 223,411 223,592 223,773 276,916 383,1023 489,1130 632,1184 813,1184 992,1184 1136,1130 1245,1023 1353,916 1407,772 1407,592 1407,412 1353,268 1245,161 1136,54 992,0 813,0 Z"/>
  </g>
  <g id="bullet-char-template-8226" transform="scale(0.00048828125,-0.00048828125)">
   <path d="M 346,457 C 273,457 209,483 155,535 101,586 74,649 74,723 74,796 101,859 155,911 209,963 273,989 346,989 419,989 480,963 531,910 582,859 608,796 608,723 608,648 583,586 532,535 482,483 420,457 346,457 Z"/>
  </g>
  <g id="bullet-char-template-8211" transform="scale(0.00048828125,-0.00048828125)">
   <path d="M -4,459 L 1135,459 1135,606 -4,606 -4,459 Z"/>
  </g>
  <g id="bullet-char-template-61548" transform="scale(0.00048828125,-0.00048828125)">
   <path d="M 173,740 C 173,903 231,1043 346,1159 462,1274 601,1332 765,1332 928,1332 1067,1274 1183,1159 1299,1043 1357,903 1357,740 1357,577 1299,437 1183,322 1067,206 928,148 765,148 601,148 462,206 346,322 231,437 173,577 173,740 Z"/>
  </g>
 </defs>
 <g>
  <g id="id2" class="Master_Slide">
   <g id="bg-id2" class="Background"/>
   <g id="bo-id2" class="BackgroundObjects"/>
  </g>
 </g>
 <g class="SlideGroup">
  <g>
   <g id="container-id1">
    <g id="id1" class="Slide" clip-path="url(#presentation_clip_path)">
     <g class="Page">
      <g class="com.sun.star.drawing.ClosedBezierShape">
       <g id="id3">
        <rect class="BoundingBox" stroke="none" fill="none" x="191" y="417" width="358" height="305"/>
        <path fill="rgb(255,0,0)" stroke="none" d="M 548,614 C 441,756 298,757 191,614 277,504 370,418 370,418 L 548,614 Z"/>
       </g>
      </g>
      <g class="com.sun.star.drawing.ClosedBezierShape">
       <g id="id4">
        <rect class="BoundingBox" stroke="none" fill="none" x="187" y="101" width="360" height="301"/>
        <path fill="rgb(255,0,0)" stroke="none" d="M 545,207 C 439,66 295,67 187,208 274,315 367,401 367,401 L 545,207 Z"/>
       </g>
      </g>
      <g class="com.sun.star.drawing.LineShape">
       <g id="id5">
        <rect class="BoundingBox" stroke="none" fill="none" x="43" y="57" width="336" height="343"/>
        <path fill="none" stroke="rgb(64,64,64)" stroke-width="25" stroke-linejoin="miter" d="M 369,390 L 52,66"/>
       </g>
      </g>
      <g class="com.sun.star.drawing.LineShape">
       <g id="id6">
        <rect class="BoundingBox" stroke="none" fill="none" x="50" y="381" width="330" height="425"/>
        <path fill="none" stroke="rgb(64,64,64)" stroke-width="25" stroke-linejoin="miter" d="M 369,390 L 60,797"/>
       </g>
      </g>
      <g class="com.sun.star.drawing.LineShape">
       <g id="id7">
        <rect class="BoundingBox" stroke="none" fill="none" x="358" y="51" width="324" height="356"/>
        <path fill="none" stroke="rgb(64,64,64)" stroke-width="25" stroke-linejoin="miter" d="M 368,398 L 671,60"/>
       </g>
      </g>
      <g class="com.sun.star.drawing.LineShape">
       <g id="id8">
        <rect class="BoundingBox" stroke="none" fill="none" x="358" y="389" width="347" height="412"/>
        <path fill="none" stroke="rgb(64,64,64)" stroke-width="25" stroke-linejoin="miter" d="M 368,398 L 694,791"/>
       </g>
      </g>
      <g class="com.sun.star.drawing.ClosedBezierShape">
       <g id="id9">
        <rect class="BoundingBox" stroke="none" fill="none" x="318" y="348" width="101" height="100"/>
        <path fill="rgb(64,64,64)" stroke="none" d="M 411,373 C 415,380 417,388 418,397 418,406 415,414 411,422 406,429 401,435 394,439 386,444 378,446 369,446 361,446 351,445 344,440 336,436 330,430 326,423 321,416 319,407 319,399 319,390 320,381 325,374 329,366 336,360 343,356 351,351 359,349 368,349 376,349 385,351 392,355 400,359 406,365 411,373 Z"/>
       </g>
      </g>
      <g class="com.sun.star.drawing.OpenBezierShape">
       <g id="id10">
        <rect class="BoundingBox" stroke="none" fill="none" x="748" y="392" width="817" height="198"/>
        <path fill="none" stroke="rgb(0,0,0)" stroke-width="26" stroke-linejoin="miter" d="M 756,425 C 1077,633 1199,626 1556,404"/>
       </g>
      </g>
      <g class="com.sun.star.drawing.PolyPolygonShape">
       <g id="id11">
        <rect class="BoundingBox" stroke="none" fill="none" x="1393" y="389" width="187" height="145"/>
        <path fill="rgb(0,0,0)" stroke="none" d="M 1466,459 L 1449,532 1578,390 1393,442 1466,459 Z"/>
       </g>
      </g>
      <g class="com.sun.star.drawing.PolyPolygonShape">
       <g id="id12">
        <rect class="BoundingBox" stroke="none" fill="none" x="1365" y="376" width="237" height="183"/>
        <path fill="none" stroke="rgb(0,0,0)" stroke-width="14" stroke-linejoin="miter" d="M 1466,459 L 1449,532 1578,390 1393,442 1466,459 Z"/>
       </g>
      </g>
      <g class="com.sun.star.drawing.LineShape">
       <g id="id13">
        <rect class="BoundingBox" stroke="none" fill="none" x="1609" y="48" width="337" height="344"/>
        <path fill="none" stroke="rgb(64,64,64)" stroke-width="25" stroke-linejoin="miter" d="M 1935,382 L 1618,57"/>
       </g>
      </g>
      <g class="com.sun.star.drawing.LineShape">
       <g id="id14">
        <rect class="BoundingBox" stroke="none" fill="none" x="1616" y="374" width="331" height="424"/>
        <path fill="none" stroke="rgb(64,64,64)" stroke-width="25" stroke-linejoin="miter" d="M 1935,382 L 1626,789"/>
       </g>
      </g>
      <g class="com.sun.star.drawing.LineShape">
       <g id="id15">
        <rect class="BoundingBox" stroke="none" fill="none" x="2378" y="43" width="324" height="355"/>
        <path fill="none" stroke="rgb(64,64,64)" stroke-width="25" stroke-linejoin="miter" d="M 2388,389 L 2691,52"/>
       </g>
      </g>
      <g class="com.sun.star.drawing.LineShape">
       <g id="id16">
        <rect class="BoundingBox" stroke="none" fill="none" x="2378" y="380" width="347" height="413"/>
        <path fill="none" stroke="rgb(64,64,64)" stroke-width="25" stroke-linejoin="miter" d="M 2388,389 L 2714,783"/>
       </g>
      </g>
      <g class="com.sun.star.drawing.ClosedBezierShape">
       <g id="id17">
        <rect class="BoundingBox" stroke="none" fill="none" x="1885" y="339" width="100" height="100"/>
        <path fill="rgb(64,64,64)" stroke="none" d="M 1976,364 C 1981,371 1983,380 1983,389 1983,397 1981,405 1977,413 1973,420 1967,426 1959,430 1952,435 1943,437 1935,437 1926,437 1918,435 1910,431 1903,427 1897,421 1892,414 1888,406 1885,399 1885,390 1885,381 1887,372 1891,365 1895,357 1901,352 1909,347 1916,343 1925,340 1933,340 1942,340 1950,342 1958,346 1965,351 1972,357 1976,364 Z"/>
       </g>
      </g>
      <g class="com.sun.star.drawing.ClosedBezierShape">
       <g id="id18">
        <rect class="BoundingBox" stroke="none" fill="none" x="2339" y="339" width="100" height="100"/>
        <path fill="rgb(64,64,64)" stroke="none" d="M 2430,364 C 2435,371 2437,380 2437,389 2438,397 2435,405 2431,413 2427,420 2422,426 2414,430 2407,435 2398,437 2389,437 2380,437 2372,435 2364,431 2357,427 2351,421 2346,414 2342,406 2339,399 2339,390 2339,381 2341,372 2345,365 2350,357 2356,352 2363,347 2370,343 2379,340 2387,340 2396,340 2405,342 2412,346 2420,351 2426,357 2430,364 Z"/>
       </g>
      </g>
      <g class="com.sun.star.drawing.LineShape">
       <g id="id19">
        <rect class="BoundingBox" stroke="none" fill="none" x="1934" y="377" width="456" height="27"/>
        <path fill="none" stroke="rgb(64,64,64)" stroke-width="25" stroke-linejoin="miter" d="M 1934,390 L 2388,390"/>
       </g>
      </g>
     </g>
    </g>
   </g>
  </g>
 </g>
</svg>